<?xml version="1.0" standalone="no"?>
<!DOCTYPE svg PUBLIC "-//W3C//DTD SVG 20010904//EN"
 "http://www.w3.org/TR/2001/REC-SVG-20010904/DTD/svg10.dtd">
<svg version="1.0" xmlns="http://www.w3.org/2000/svg"
 width="700.000000pt" height="700.000000pt" viewBox="0 0 700.000000 700.000000"
 preserveAspectRatio="xMidYMid meet">
<metadata>
Created by potrace 1.14, written by Peter Selinger 2001-2017
</metadata>
<g transform="translate(0.000000,700.000000) scale(0.100000,-0.100000)"
fill="#000000" stroke="none">
<path d="M0 3500 l0 -3500 3500 0 3500 0 0 3500 0 3500 -3500 0 -3500 0 0
-3500z m973 2561 l197 -175 -1 -2391 0 -2390 -226 -200 c-125 -110 -230 -201
-235 -203 -4 -2 -8 1257 -8 2798 l0 2802 38 -33 c20 -18 126 -111 235 -208z
m5327 -2561 c0 -1540 -3 -2800 -7 -2800 -5 0 -635 558 -1402 1241 l-1394 1240
-26 -24 c-119 -109 -1831 -1627 -1835 -1627 -3 0 -6 141 -5 313 l0 312 754
670 c566 502 751 673 743 682 -5 7 -345 310 -754 674 l-744 663 0 314 c0 299
1 314 17 300 10 -8 429 -380 931 -827 503 -447 919 -810 925 -808 7 3 637 562
1400 1241 763 680 1390 1236 1392 1236 3 0 5 -1260 5 -2800z"/>
<path d="M4835 4374 c-533 -476 -971 -869 -973 -873 -2 -6 1504 -1355 1921
-1720 l37 -33 0 1746 c0 960 -3 1746 -7 1745 -5 0 -444 -390 -978 -865z"/>
</g>
</svg>
